<mxfile host="Electron" agent="Mozilla/5.0 (Windows NT 10.0; Win64; x64) AppleWebKit/537.36 (KHTML, like Gecko) draw.io/26.1.1 Chrome/132.0.6834.210 Electron/34.3.3 Safari/537.36" version="26.1.1">
  <diagram name="Page-1" id="Q996mehIB081XOP_BICr">
    <mxGraphModel dx="1562" dy="909" grid="1" gridSize="10" guides="1" tooltips="1" connect="1" arrows="1" fold="1" page="1" pageScale="1" pageWidth="3300" pageHeight="4681" math="0" shadow="0">
      <root>
        <mxCell id="0" />
        <mxCell id="1" parent="0" />
        <mxCell id="PvxDkJQJ_6rjAkDlVwc9-1" value="User" style="shape=umlActor;verticalLabelPosition=bottom;verticalAlign=top;html=1;outlineConnect=0;" vertex="1" parent="1">
          <mxGeometry x="240" y="820" width="60" height="100" as="geometry" />
        </mxCell>
        <mxCell id="PvxDkJQJ_6rjAkDlVwc9-2" value="EditProfile Screen" style="shape=umlBoundary;whiteSpace=wrap;html=1;" vertex="1" parent="1">
          <mxGeometry x="480" y="830" width="100" height="80" as="geometry" />
        </mxCell>
        <mxCell id="PvxDkJQJ_6rjAkDlVwc9-3" value="Change Mobile Number Controller" style="ellipse;shape=umlControl;whiteSpace=wrap;html=1;" vertex="1" parent="1">
          <mxGeometry x="690" y="830" width="70" height="80" as="geometry" />
        </mxCell>
        <mxCell id="PvxDkJQJ_6rjAkDlVwc9-4" value="Avatar Controller" style="ellipse;shape=umlControl;whiteSpace=wrap;html=1;" vertex="1" parent="1">
          <mxGeometry x="1170" y="1120" width="70" height="80" as="geometry" />
        </mxCell>
        <mxCell id="PvxDkJQJ_6rjAkDlVwc9-5" style="edgeStyle=orthogonalEdgeStyle;rounded=0;orthogonalLoop=1;jettySize=auto;html=1;" edge="1" parent="1" source="PvxDkJQJ_6rjAkDlVwc9-2">
          <mxGeometry relative="1" as="geometry">
            <mxPoint x="690" y="870" as="targetPoint" />
          </mxGeometry>
        </mxCell>
        <mxCell id="PvxDkJQJ_6rjAkDlVwc9-6" style="edgeStyle=orthogonalEdgeStyle;rounded=0;orthogonalLoop=1;jettySize=auto;html=1;fillColor=#e51400;strokeColor=#B20000;" edge="1" parent="1">
          <mxGeometry relative="1" as="geometry">
            <Array as="points">
              <mxPoint x="904.71" y="1050" />
              <mxPoint x="904.71" y="1050" />
            </Array>
            <mxPoint x="904.71" y="910" as="sourcePoint" />
            <mxPoint x="904.7385714285715" y="1100.4055679369478" as="targetPoint" />
          </mxGeometry>
        </mxCell>
        <mxCell id="PvxDkJQJ_6rjAkDlVwc9-7" value="No" style="edgeLabel;html=1;align=center;verticalAlign=middle;resizable=0;points=[];" vertex="1" connectable="0" parent="PvxDkJQJ_6rjAkDlVwc9-6">
          <mxGeometry x="-0.3151" y="-1" relative="1" as="geometry">
            <mxPoint as="offset" />
          </mxGeometry>
        </mxCell>
        <mxCell id="PvxDkJQJ_6rjAkDlVwc9-8" value="Is the number in the correct format ?" style="ellipse;shape=umlControl;whiteSpace=wrap;html=1;fillColor=#e51400;fontColor=#ffffff;strokeColor=#B20000;textShadow=1;fontSize=11;" vertex="1" parent="1">
          <mxGeometry x="860" y="830" width="80" height="80" as="geometry" />
        </mxCell>
        <mxCell id="PvxDkJQJ_6rjAkDlVwc9-9" style="edgeStyle=orthogonalEdgeStyle;rounded=0;orthogonalLoop=1;jettySize=auto;html=1;" edge="1" parent="1" source="PvxDkJQJ_6rjAkDlVwc9-3">
          <mxGeometry relative="1" as="geometry">
            <mxPoint x="860" y="870" as="targetPoint" />
          </mxGeometry>
        </mxCell>
        <mxCell id="PvxDkJQJ_6rjAkDlVwc9-10" value="Show" style="ellipse;shape=umlControl;whiteSpace=wrap;html=1;fillColor=#e51400;fontColor=#ffffff;strokeColor=#B20000;textShadow=1;" vertex="1" parent="1">
          <mxGeometry x="870" y="1100" width="70" height="80" as="geometry" />
        </mxCell>
        <mxCell id="PvxDkJQJ_6rjAkDlVwc9-11" value="Error Message&lt;div&gt;&quot;Invalid Number, please try again.&quot;&lt;/div&gt;" style="ellipse;shape=umlControl;whiteSpace=wrap;html=1;fillColor=#e51400;fontColor=#FFFFFF;strokeColor=#B20000;fontSize=10;labelBackgroundColor=none;labelBorderColor=none;textShadow=1;" vertex="1" parent="1">
          <mxGeometry x="670" y="1070" width="100" height="120" as="geometry" />
        </mxCell>
        <mxCell id="PvxDkJQJ_6rjAkDlVwc9-12" style="edgeStyle=orthogonalEdgeStyle;rounded=0;orthogonalLoop=1;jettySize=auto;html=1;entryX=0.987;entryY=0.506;entryDx=0;entryDy=0;entryPerimeter=0;fillColor=#e51400;strokeColor=#B20000;endArrow=none;startFill=0;" edge="1" parent="1" source="PvxDkJQJ_6rjAkDlVwc9-10" target="PvxDkJQJ_6rjAkDlVwc9-11">
          <mxGeometry relative="1" as="geometry">
            <Array as="points">
              <mxPoint x="769" y="1150" />
            </Array>
          </mxGeometry>
        </mxCell>
        <mxCell id="PvxDkJQJ_6rjAkDlVwc9-13" style="edgeStyle=orthogonalEdgeStyle;rounded=0;orthogonalLoop=1;jettySize=auto;html=1;entryX=-0.02;entryY=0.505;entryDx=0;entryDy=0;entryPerimeter=0;" edge="1" parent="1" source="PvxDkJQJ_6rjAkDlVwc9-1" target="PvxDkJQJ_6rjAkDlVwc9-2">
          <mxGeometry relative="1" as="geometry" />
        </mxCell>
        <mxCell id="PvxDkJQJ_6rjAkDlVwc9-14" value="&quot;Edit Profile&quot; Selection" style="text;html=1;align=center;verticalAlign=middle;resizable=0;points=[];autosize=1;strokeColor=none;fillColor=none;" vertex="1" parent="1">
          <mxGeometry x="320" y="840" width="140" height="30" as="geometry" />
        </mxCell>
        <mxCell id="PvxDkJQJ_6rjAkDlVwc9-15" style="edgeStyle=orthogonalEdgeStyle;rounded=0;orthogonalLoop=1;jettySize=auto;html=1;fillColor=#e51400;strokeColor=#B20000;exitX=0.531;exitY=0.085;exitDx=0;exitDy=0;exitPerimeter=0;" edge="1" parent="1" source="PvxDkJQJ_6rjAkDlVwc9-16" target="PvxDkJQJ_6rjAkDlVwc9-3">
          <mxGeometry relative="1" as="geometry">
            <Array as="points">
              <mxPoint x="515" y="1097" />
              <mxPoint x="515" y="960" />
              <mxPoint x="725" y="960" />
            </Array>
          </mxGeometry>
        </mxCell>
        <mxCell id="PvxDkJQJ_6rjAkDlVwc9-16" value="&lt;font style=&quot;font-size: 11px;&quot;&gt;Await correct user input&lt;/font&gt;" style="ellipse;shape=umlControl;whiteSpace=wrap;html=1;fillColor=#e51400;fontColor=#ffffff;strokeColor=#B20000;textShadow=1;" vertex="1" parent="1">
          <mxGeometry x="480" y="1090" width="70" height="80" as="geometry" />
        </mxCell>
        <mxCell id="PvxDkJQJ_6rjAkDlVwc9-17" style="edgeStyle=orthogonalEdgeStyle;rounded=0;orthogonalLoop=1;jettySize=auto;html=1;entryX=1.046;entryY=0.495;entryDx=0;entryDy=0;entryPerimeter=0;fillColor=#e51400;strokeColor=#B20000;" edge="1" parent="1" source="PvxDkJQJ_6rjAkDlVwc9-11" target="PvxDkJQJ_6rjAkDlVwc9-16">
          <mxGeometry relative="1" as="geometry" />
        </mxCell>
        <mxCell id="PvxDkJQJ_6rjAkDlVwc9-18" value="Username Controller" style="ellipse;shape=umlControl;whiteSpace=wrap;html=1;" vertex="1" parent="1">
          <mxGeometry x="500" y="410" width="70" height="80" as="geometry" />
        </mxCell>
        <mxCell id="PvxDkJQJ_6rjAkDlVwc9-19" style="edgeStyle=orthogonalEdgeStyle;rounded=0;orthogonalLoop=1;jettySize=auto;html=1;entryX=0.417;entryY=1.04;entryDx=0;entryDy=0;entryPerimeter=0;" edge="1" parent="1" source="PvxDkJQJ_6rjAkDlVwc9-2" target="PvxDkJQJ_6rjAkDlVwc9-18">
          <mxGeometry relative="1" as="geometry" />
        </mxCell>
        <mxCell id="PvxDkJQJ_6rjAkDlVwc9-20" style="edgeStyle=orthogonalEdgeStyle;rounded=0;orthogonalLoop=1;jettySize=auto;html=1;" edge="1" parent="1" source="PvxDkJQJ_6rjAkDlVwc9-22" target="PvxDkJQJ_6rjAkDlVwc9-24">
          <mxGeometry relative="1" as="geometry" />
        </mxCell>
        <mxCell id="PvxDkJQJ_6rjAkDlVwc9-21" value="No" style="edgeLabel;html=1;align=center;verticalAlign=middle;resizable=0;points=[];" vertex="1" connectable="0" parent="PvxDkJQJ_6rjAkDlVwc9-20">
          <mxGeometry x="0.225" y="-1" relative="1" as="geometry">
            <mxPoint as="offset" />
          </mxGeometry>
        </mxCell>
        <mxCell id="PvxDkJQJ_6rjAkDlVwc9-22" value="Username complies with rules?" style="ellipse;shape=umlControl;whiteSpace=wrap;html=1;fillColor=#e51400;fontColor=#ffffff;strokeColor=#B20000;textShadow=1;" vertex="1" parent="1">
          <mxGeometry x="670" y="410" width="70" height="80" as="geometry" />
        </mxCell>
        <mxCell id="PvxDkJQJ_6rjAkDlVwc9-23" style="edgeStyle=orthogonalEdgeStyle;rounded=0;orthogonalLoop=1;jettySize=auto;html=1;entryX=0.034;entryY=0.49;entryDx=0;entryDy=0;entryPerimeter=0;" edge="1" parent="1" source="PvxDkJQJ_6rjAkDlVwc9-18" target="PvxDkJQJ_6rjAkDlVwc9-22">
          <mxGeometry relative="1" as="geometry" />
        </mxCell>
        <mxCell id="PvxDkJQJ_6rjAkDlVwc9-24" value="Show" style="ellipse;shape=umlControl;whiteSpace=wrap;html=1;fillColor=#e51400;fontColor=#ffffff;strokeColor=#B20000;textShadow=1;" vertex="1" parent="1">
          <mxGeometry x="820" y="410" width="70" height="80" as="geometry" />
        </mxCell>
        <mxCell id="PvxDkJQJ_6rjAkDlVwc9-25" value="Error Message; &quot;Invalid Username,Try again&quot;" style="ellipse;shape=umlControl;whiteSpace=wrap;html=1;fillColor=#e51400;fontColor=#ffffff;strokeColor=#B20000;fontSize=10;textShadow=1;" vertex="1" parent="1">
          <mxGeometry x="980" y="410" width="70" height="80" as="geometry" />
        </mxCell>
        <mxCell id="PvxDkJQJ_6rjAkDlVwc9-26" style="edgeStyle=orthogonalEdgeStyle;rounded=0;orthogonalLoop=1;jettySize=auto;html=1;entryX=-0.029;entryY=0.51;entryDx=0;entryDy=0;entryPerimeter=0;fillColor=#e51400;strokeColor=#B20000;endArrow=none;startFill=0;" edge="1" parent="1" source="PvxDkJQJ_6rjAkDlVwc9-24" target="PvxDkJQJ_6rjAkDlVwc9-25">
          <mxGeometry relative="1" as="geometry" />
        </mxCell>
        <mxCell id="PvxDkJQJ_6rjAkDlVwc9-27" style="edgeStyle=orthogonalEdgeStyle;rounded=0;orthogonalLoop=1;jettySize=auto;html=1;entryX=0.463;entryY=0.05;entryDx=0;entryDy=0;entryPerimeter=0;fillColor=#e51400;strokeColor=#B20000;" edge="1" parent="1" source="PvxDkJQJ_6rjAkDlVwc9-25" target="PvxDkJQJ_6rjAkDlVwc9-18">
          <mxGeometry relative="1" as="geometry">
            <Array as="points">
              <mxPoint x="1120" y="450" />
              <mxPoint x="1120" y="300" />
              <mxPoint x="532" y="300" />
            </Array>
          </mxGeometry>
        </mxCell>
        <mxCell id="PvxDkJQJ_6rjAkDlVwc9-28" value="Prompt user to try another username" style="text;html=1;align=center;verticalAlign=middle;whiteSpace=wrap;rounded=0;" vertex="1" parent="1">
          <mxGeometry x="740" y="250" width="150" height="50" as="geometry" />
        </mxCell>
        <mxCell id="PvxDkJQJ_6rjAkDlVwc9-29" value="SaveChanges Controller" style="ellipse;shape=umlControl;whiteSpace=wrap;html=1;" vertex="1" parent="1">
          <mxGeometry x="990" y="610" width="70" height="80" as="geometry" />
        </mxCell>
        <mxCell id="PvxDkJQJ_6rjAkDlVwc9-30" value="Show&amp;nbsp;" style="ellipse;shape=umlControl;whiteSpace=wrap;html=1;" vertex="1" parent="1">
          <mxGeometry x="1170" y="610" width="70" height="80" as="geometry" />
        </mxCell>
        <mxCell id="PvxDkJQJ_6rjAkDlVwc9-31" style="edgeStyle=orthogonalEdgeStyle;rounded=0;orthogonalLoop=1;jettySize=auto;html=1;" edge="1" parent="1" source="PvxDkJQJ_6rjAkDlVwc9-32">
          <mxGeometry relative="1" as="geometry">
            <mxPoint x="1630" y="650" as="targetPoint" />
          </mxGeometry>
        </mxCell>
        <mxCell id="PvxDkJQJ_6rjAkDlVwc9-32" value="&lt;span style=&quot;color: rgb(0, 0, 0);&quot;&gt;Confirmation Msg&lt;/span&gt;&lt;div&gt;&lt;span style=&quot;color: rgb(0, 0, 0);&quot;&gt;&quot;Profile Updated!&quot;&lt;/span&gt;&lt;/div&gt;" style="ellipse;shape=umlControl;whiteSpace=wrap;html=1;" vertex="1" parent="1">
          <mxGeometry x="1350" y="600" width="90" height="100" as="geometry" />
        </mxCell>
        <mxCell id="PvxDkJQJ_6rjAkDlVwc9-33" style="edgeStyle=orthogonalEdgeStyle;rounded=0;orthogonalLoop=1;jettySize=auto;html=1;entryX=0;entryY=0.645;entryDx=0;entryDy=0;entryPerimeter=0;" edge="1" parent="1" source="PvxDkJQJ_6rjAkDlVwc9-22" target="PvxDkJQJ_6rjAkDlVwc9-29">
          <mxGeometry relative="1" as="geometry">
            <Array as="points">
              <mxPoint x="705" y="662" />
            </Array>
          </mxGeometry>
        </mxCell>
        <mxCell id="PvxDkJQJ_6rjAkDlVwc9-34" value="Yes" style="edgeLabel;html=1;align=center;verticalAlign=middle;resizable=0;points=[];" vertex="1" connectable="0" parent="PvxDkJQJ_6rjAkDlVwc9-33">
          <mxGeometry x="-0.8967" y="1" relative="1" as="geometry">
            <mxPoint as="offset" />
          </mxGeometry>
        </mxCell>
        <mxCell id="PvxDkJQJ_6rjAkDlVwc9-35" style="edgeStyle=orthogonalEdgeStyle;rounded=0;orthogonalLoop=1;jettySize=auto;html=1;entryX=0.48;entryY=1.025;entryDx=0;entryDy=0;entryPerimeter=0;" edge="1" parent="1" source="PvxDkJQJ_6rjAkDlVwc9-8" target="PvxDkJQJ_6rjAkDlVwc9-29">
          <mxGeometry relative="1" as="geometry" />
        </mxCell>
        <mxCell id="PvxDkJQJ_6rjAkDlVwc9-36" value="Yes" style="edgeLabel;html=1;align=center;verticalAlign=middle;resizable=0;points=[];" vertex="1" connectable="0" parent="PvxDkJQJ_6rjAkDlVwc9-35">
          <mxGeometry x="-0.7232" y="-1" relative="1" as="geometry">
            <mxPoint as="offset" />
          </mxGeometry>
        </mxCell>
        <mxCell id="PvxDkJQJ_6rjAkDlVwc9-37" style="edgeStyle=orthogonalEdgeStyle;rounded=0;orthogonalLoop=1;jettySize=auto;html=1;entryX=0.046;entryY=0.505;entryDx=0;entryDy=0;entryPerimeter=0;" edge="1" parent="1" source="PvxDkJQJ_6rjAkDlVwc9-29" target="PvxDkJQJ_6rjAkDlVwc9-30">
          <mxGeometry relative="1" as="geometry" />
        </mxCell>
        <mxCell id="PvxDkJQJ_6rjAkDlVwc9-38" style="edgeStyle=orthogonalEdgeStyle;rounded=0;orthogonalLoop=1;jettySize=auto;html=1;entryX=-0.018;entryY=0.504;entryDx=0;entryDy=0;entryPerimeter=0;endArrow=none;startFill=0;" edge="1" parent="1" source="PvxDkJQJ_6rjAkDlVwc9-30" target="PvxDkJQJ_6rjAkDlVwc9-32">
          <mxGeometry relative="1" as="geometry" />
        </mxCell>
        <mxCell id="PvxDkJQJ_6rjAkDlVwc9-39" style="edgeStyle=orthogonalEdgeStyle;rounded=0;orthogonalLoop=1;jettySize=auto;html=1;entryX=0.429;entryY=1;entryDx=0;entryDy=0;entryPerimeter=0;" edge="1" parent="1">
          <mxGeometry relative="1" as="geometry">
            <mxPoint x="539.98" y="910" as="sourcePoint" />
            <mxPoint x="1200.0100000000002" y="1200" as="targetPoint" />
            <Array as="points">
              <mxPoint x="539.98" y="950" />
              <mxPoint x="359.98" y="950" />
              <mxPoint x="359.98" y="1360" />
              <mxPoint x="1199.98" y="1360" />
            </Array>
          </mxGeometry>
        </mxCell>
        <mxCell id="PvxDkJQJ_6rjAkDlVwc9-40" value="&lt;font style=&quot;font-size: 11px;&quot;&gt;Is the photo in the correct format ?&lt;/font&gt;" style="ellipse;shape=umlControl;whiteSpace=wrap;html=1;fillColor=#e51400;fontColor=#ffffff;strokeColor=#B20000;textShadow=1;" vertex="1" parent="1">
          <mxGeometry x="1160" y="930" width="80" height="90" as="geometry" />
        </mxCell>
        <mxCell id="PvxDkJQJ_6rjAkDlVwc9-41" style="edgeStyle=orthogonalEdgeStyle;rounded=0;orthogonalLoop=1;jettySize=auto;html=1;entryX=0.555;entryY=1;entryDx=0;entryDy=0;entryPerimeter=0;exitX=0.504;exitY=0.074;exitDx=0;exitDy=0;exitPerimeter=0;" edge="1" parent="1" source="PvxDkJQJ_6rjAkDlVwc9-4" target="PvxDkJQJ_6rjAkDlVwc9-40">
          <mxGeometry relative="1" as="geometry" />
        </mxCell>
        <mxCell id="PvxDkJQJ_6rjAkDlVwc9-42" style="edgeStyle=orthogonalEdgeStyle;rounded=0;orthogonalLoop=1;jettySize=auto;html=1;entryX=1;entryY=0.75;entryDx=0;entryDy=0;entryPerimeter=0;" edge="1" parent="1" source="PvxDkJQJ_6rjAkDlVwc9-40" target="PvxDkJQJ_6rjAkDlVwc9-29">
          <mxGeometry relative="1" as="geometry" />
        </mxCell>
        <mxCell id="PvxDkJQJ_6rjAkDlVwc9-43" value="Yes" style="edgeLabel;html=1;align=center;verticalAlign=middle;resizable=0;points=[];" vertex="1" connectable="0" parent="PvxDkJQJ_6rjAkDlVwc9-42">
          <mxGeometry x="-0.596" relative="1" as="geometry">
            <mxPoint as="offset" />
          </mxGeometry>
        </mxCell>
        <mxCell id="PvxDkJQJ_6rjAkDlVwc9-44" value="Show&amp;nbsp;" style="ellipse;shape=umlControl;whiteSpace=wrap;html=1;fillColor=#e51400;fontColor=#ffffff;strokeColor=#B20000;textShadow=1;" vertex="1" parent="1">
          <mxGeometry x="1340" y="940" width="70" height="80" as="geometry" />
        </mxCell>
        <mxCell id="PvxDkJQJ_6rjAkDlVwc9-45" style="edgeStyle=orthogonalEdgeStyle;rounded=0;orthogonalLoop=1;jettySize=auto;html=1;entryX=0.017;entryY=0.49;entryDx=0;entryDy=0;entryPerimeter=0;fillColor=#e51400;strokeColor=#B20000;" edge="1" parent="1" source="PvxDkJQJ_6rjAkDlVwc9-40" target="PvxDkJQJ_6rjAkDlVwc9-44">
          <mxGeometry relative="1" as="geometry">
            <Array as="points">
              <mxPoint x="1270" y="979" />
              <mxPoint x="1270" y="979" />
            </Array>
          </mxGeometry>
        </mxCell>
        <mxCell id="PvxDkJQJ_6rjAkDlVwc9-46" value="No" style="edgeLabel;html=1;align=center;verticalAlign=middle;resizable=0;points=[];" vertex="1" connectable="0" parent="PvxDkJQJ_6rjAkDlVwc9-45">
          <mxGeometry x="-0.1048" y="-1" relative="1" as="geometry">
            <mxPoint as="offset" />
          </mxGeometry>
        </mxCell>
        <mxCell id="PvxDkJQJ_6rjAkDlVwc9-47" style="edgeStyle=orthogonalEdgeStyle;rounded=0;orthogonalLoop=1;jettySize=auto;html=1;fillColor=#e51400;strokeColor=#B20000;endArrow=none;startFill=0;" edge="1" parent="1" source="PvxDkJQJ_6rjAkDlVwc9-48">
          <mxGeometry relative="1" as="geometry">
            <mxPoint x="1574.9999999999995" y="1140" as="targetPoint" />
          </mxGeometry>
        </mxCell>
        <mxCell id="PvxDkJQJ_6rjAkDlVwc9-48" value="Error Message &quot;Please select a valid image file&quot;" style="ellipse;shape=umlControl;whiteSpace=wrap;html=1;fillColor=#e51400;fontColor=#ffffff;strokeColor=#B20000;textShadow=1;" vertex="1" parent="1">
          <mxGeometry x="1530" y="930" width="90" height="100" as="geometry" />
        </mxCell>
        <mxCell id="PvxDkJQJ_6rjAkDlVwc9-49" style="edgeStyle=orthogonalEdgeStyle;rounded=0;orthogonalLoop=1;jettySize=auto;html=1;entryX=0.009;entryY=0.508;entryDx=0;entryDy=0;entryPerimeter=0;fillColor=#e51400;strokeColor=#B20000;endArrow=none;startFill=0;" edge="1" parent="1" source="PvxDkJQJ_6rjAkDlVwc9-44" target="PvxDkJQJ_6rjAkDlVwc9-48">
          <mxGeometry relative="1" as="geometry" />
        </mxCell>
        <mxCell id="PvxDkJQJ_6rjAkDlVwc9-50" value="Await correct user input" style="ellipse;shape=umlControl;whiteSpace=wrap;html=1;fillColor=#e51400;fontColor=#ffffff;strokeColor=#B20000;textShadow=1;" vertex="1" parent="1">
          <mxGeometry x="1540" y="1130" width="70" height="80" as="geometry" />
        </mxCell>
        <mxCell id="PvxDkJQJ_6rjAkDlVwc9-51" style="edgeStyle=orthogonalEdgeStyle;rounded=0;orthogonalLoop=1;jettySize=auto;html=1;entryX=1.022;entryY=0.617;entryDx=0;entryDy=0;entryPerimeter=0;fillColor=#e51400;strokeColor=#B20000;" edge="1" parent="1" source="PvxDkJQJ_6rjAkDlVwc9-50" target="PvxDkJQJ_6rjAkDlVwc9-4">
          <mxGeometry relative="1" as="geometry" />
        </mxCell>
        <mxCell id="PvxDkJQJ_6rjAkDlVwc9-52" value="&lt;span style=&quot;font-size: 12px; background-color: rgb(251, 251, 251);&quot;&gt;prompt user to choose correct avatar&lt;/span&gt;" style="edgeLabel;html=1;align=center;verticalAlign=middle;resizable=0;points=[];" vertex="1" connectable="0" parent="PvxDkJQJ_6rjAkDlVwc9-51">
          <mxGeometry x="0.0928" y="2" relative="1" as="geometry">
            <mxPoint x="17" y="-1" as="offset" />
          </mxGeometry>
        </mxCell>
        <mxCell id="PvxDkJQJ_6rjAkDlVwc9-53" value="&lt;span style=&quot;color: rgb(0, 0, 0); font-family: Helvetica; font-size: 12px; font-style: normal; font-variant-ligatures: normal; font-variant-caps: normal; font-weight: 400; letter-spacing: normal; orphans: 2; text-align: center; text-indent: 0px; text-transform: none; widows: 2; word-spacing: 0px; -webkit-text-stroke-width: 0px; white-space: nowrap; background-color: rgb(251, 251, 251); text-decoration-thickness: initial; text-decoration-style: initial; text-decoration-color: initial; display: inline !important; float: none;&quot;&gt;prompt user to enter valid number&lt;/span&gt;" style="text;whiteSpace=wrap;html=1;" vertex="1" parent="1">
          <mxGeometry x="530" y="965" width="180" height="30" as="geometry" />
        </mxCell>
        <mxCell id="PvxDkJQJ_6rjAkDlVwc9-54" value="Change Username selection" style="text;html=1;align=center;verticalAlign=middle;resizable=0;points=[];autosize=1;strokeColor=none;fillColor=none;rotation=-90;" vertex="1" parent="1">
          <mxGeometry x="430" y="690" width="170" height="30" as="geometry" />
        </mxCell>
        <mxCell id="PvxDkJQJ_6rjAkDlVwc9-55" value="&lt;span style=&quot;color: rgb(0, 0, 0); font-family: Helvetica; font-style: normal; font-variant-ligatures: normal; font-variant-caps: normal; font-weight: 400; letter-spacing: normal; orphans: 2; text-align: center; text-indent: 0px; text-transform: none; widows: 2; word-spacing: 0px; -webkit-text-stroke-width: 0px; white-space: nowrap; background-color: rgb(251, 251, 251); text-decoration-thickness: initial; text-decoration-style: initial; text-decoration-color: initial; float: none; display: inline !important;&quot;&gt;&lt;font style=&quot;font-size: 10px;&quot;&gt;Change Mobile Number selection&lt;/font&gt;&lt;/span&gt;" style="text;whiteSpace=wrap;html=1;" vertex="1" parent="1">
          <mxGeometry x="570" y="820" width="150" height="20" as="geometry" />
        </mxCell>
        <mxCell id="PvxDkJQJ_6rjAkDlVwc9-56" value="&lt;span style=&quot;color: rgb(0, 0, 0); font-family: Helvetica; font-size: 10px; font-style: normal; font-variant-ligatures: normal; font-variant-caps: normal; font-weight: 400; letter-spacing: normal; orphans: 2; text-align: center; text-indent: 0px; text-transform: none; widows: 2; word-spacing: 0px; -webkit-text-stroke-width: 0px; white-space: nowrap; background-color: rgb(251, 251, 251); text-decoration-thickness: initial; text-decoration-style: initial; text-decoration-color: initial; display: inline !important; float: none;&quot;&gt;Change Avatar selection&lt;/span&gt;" style="text;whiteSpace=wrap;html=1;" vertex="1" parent="1">
          <mxGeometry x="680" y="1330" width="110" height="30" as="geometry" />
        </mxCell>
        <mxCell id="PvxDkJQJ_6rjAkDlVwc9-57" value="User Role Controller" style="ellipse;shape=umlControl;whiteSpace=wrap;html=1;" vertex="1" parent="1">
          <mxGeometry x="280" y="550" width="70" height="80" as="geometry" />
        </mxCell>
        <mxCell id="PvxDkJQJ_6rjAkDlVwc9-58" style="edgeStyle=orthogonalEdgeStyle;rounded=0;orthogonalLoop=1;jettySize=auto;html=1;entryX=0.486;entryY=1.045;entryDx=0;entryDy=0;entryPerimeter=0;" edge="1" parent="1" source="PvxDkJQJ_6rjAkDlVwc9-2" target="PvxDkJQJ_6rjAkDlVwc9-57">
          <mxGeometry relative="1" as="geometry">
            <Array as="points">
              <mxPoint x="530" y="634" />
            </Array>
          </mxGeometry>
        </mxCell>
        <mxCell id="PvxDkJQJ_6rjAkDlVwc9-59" value="Change role selection" style="text;html=1;align=center;verticalAlign=middle;resizable=0;points=[];autosize=1;strokeColor=none;fillColor=none;" vertex="1" parent="1">
          <mxGeometry x="360" y="600" width="140" height="30" as="geometry" />
        </mxCell>
        <mxCell id="PvxDkJQJ_6rjAkDlVwc9-60" value="&lt;font style=&quot;font-size: 9px;&quot;&gt;List of Roles&lt;/font&gt;&lt;div&gt;&lt;font style=&quot;font-size: 9px;&quot;&gt;(Chef/Customer/Producer)&lt;/font&gt;&lt;/div&gt;&lt;div&gt;&lt;br&gt;&lt;/div&gt;" style="ellipse;shape=umlEntity;whiteSpace=wrap;html=1;" vertex="1" parent="1">
          <mxGeometry x="275" y="370" width="80" height="80" as="geometry" />
        </mxCell>
        <mxCell id="PvxDkJQJ_6rjAkDlVwc9-61" style="edgeStyle=orthogonalEdgeStyle;rounded=0;orthogonalLoop=1;jettySize=auto;html=1;entryX=0.497;entryY=0.125;entryDx=0;entryDy=0;entryPerimeter=0;startArrow=none;startFill=0;endArrow=none;" edge="1" parent="1" source="PvxDkJQJ_6rjAkDlVwc9-60" target="PvxDkJQJ_6rjAkDlVwc9-57">
          <mxGeometry relative="1" as="geometry" />
        </mxCell>
        <mxCell id="PvxDkJQJ_6rjAkDlVwc9-62" style="edgeStyle=orthogonalEdgeStyle;rounded=0;orthogonalLoop=1;jettySize=auto;html=1;" edge="1" parent="1" source="PvxDkJQJ_6rjAkDlVwc9-64">
          <mxGeometry relative="1" as="geometry">
            <mxPoint x="150" y="300" as="targetPoint" />
          </mxGeometry>
        </mxCell>
        <mxCell id="PvxDkJQJ_6rjAkDlVwc9-63" value="No" style="edgeLabel;html=1;align=center;verticalAlign=middle;resizable=0;points=[];" vertex="1" connectable="0" parent="PvxDkJQJ_6rjAkDlVwc9-62">
          <mxGeometry x="-0.299" y="2" relative="1" as="geometry">
            <mxPoint y="1" as="offset" />
          </mxGeometry>
        </mxCell>
        <mxCell id="PvxDkJQJ_6rjAkDlVwc9-64" value="Has the user selected a role?" style="ellipse;shape=umlControl;whiteSpace=wrap;html=1;fillColor=#e51400;fontColor=#ffffff;strokeColor=#B20000;textShadow=1;fontSize=11;" vertex="1" parent="1">
          <mxGeometry x="110" y="550" width="80" height="80" as="geometry" />
        </mxCell>
        <mxCell id="PvxDkJQJ_6rjAkDlVwc9-65" style="edgeStyle=orthogonalEdgeStyle;rounded=0;orthogonalLoop=1;jettySize=auto;html=1;entryX=0.95;entryY=0.495;entryDx=0;entryDy=0;entryPerimeter=0;" edge="1" parent="1" source="PvxDkJQJ_6rjAkDlVwc9-57" target="PvxDkJQJ_6rjAkDlVwc9-64">
          <mxGeometry relative="1" as="geometry" />
        </mxCell>
        <mxCell id="PvxDkJQJ_6rjAkDlVwc9-66" style="edgeStyle=orthogonalEdgeStyle;rounded=0;orthogonalLoop=1;jettySize=auto;html=1;exitX=0.53;exitY=1.035;exitDx=0;exitDy=0;exitPerimeter=0;" edge="1" parent="1" source="PvxDkJQJ_6rjAkDlVwc9-64">
          <mxGeometry relative="1" as="geometry">
            <mxPoint x="150" y="660" as="sourcePoint" />
            <mxPoint x="1000" y="679" as="targetPoint" />
            <Array as="points">
              <mxPoint x="152" y="800" />
              <mxPoint x="1000" y="800" />
            </Array>
          </mxGeometry>
        </mxCell>
        <mxCell id="PvxDkJQJ_6rjAkDlVwc9-67" value="Yes" style="edgeLabel;html=1;align=center;verticalAlign=middle;resizable=0;points=[];" vertex="1" connectable="0" parent="PvxDkJQJ_6rjAkDlVwc9-66">
          <mxGeometry x="-0.3752" y="5" relative="1" as="geometry">
            <mxPoint as="offset" />
          </mxGeometry>
        </mxCell>
        <mxCell id="PvxDkJQJ_6rjAkDlVwc9-68" value="&lt;font style=&quot;font-size: 11px;&quot;&gt;Await possible user input&lt;/font&gt;" style="ellipse;shape=umlControl;whiteSpace=wrap;html=1;fillColor=#e51400;fontColor=#ffffff;strokeColor=#B20000;textShadow=1;" vertex="1" parent="1">
          <mxGeometry x="115" y="220" width="70" height="80" as="geometry" />
        </mxCell>
        <mxCell id="PvxDkJQJ_6rjAkDlVwc9-69" style="edgeStyle=orthogonalEdgeStyle;rounded=0;orthogonalLoop=1;jettySize=auto;html=1;exitX=0.497;exitY=0.114;exitDx=0;exitDy=0;exitPerimeter=0;" edge="1" parent="1" source="PvxDkJQJ_6rjAkDlVwc9-70">
          <mxGeometry relative="1" as="geometry">
            <mxPoint x="1675" y="480" as="targetPoint" />
          </mxGeometry>
        </mxCell>
        <mxCell id="PvxDkJQJ_6rjAkDlVwc9-70" value="Await user move" style="ellipse;shape=umlControl;whiteSpace=wrap;html=1;fillColor=#e51400;fontColor=#ffffff;strokeColor=#B20000;textShadow=1;" vertex="1" parent="1">
          <mxGeometry x="1640" y="610" width="70" height="80" as="geometry" />
        </mxCell>
        <mxCell id="PvxDkJQJ_6rjAkDlVwc9-71" style="edgeStyle=orthogonalEdgeStyle;rounded=0;orthogonalLoop=1;jettySize=auto;html=1;dashed=1;" edge="1" parent="1" source="PvxDkJQJ_6rjAkDlVwc9-74">
          <mxGeometry relative="1" as="geometry">
            <mxPoint x="1930" y="440" as="targetPoint" />
          </mxGeometry>
        </mxCell>
        <mxCell id="PvxDkJQJ_6rjAkDlVwc9-72" value="Yes" style="edgeLabel;html=1;align=center;verticalAlign=middle;resizable=0;points=[];" vertex="1" connectable="0" parent="PvxDkJQJ_6rjAkDlVwc9-71">
          <mxGeometry x="0.0131" relative="1" as="geometry">
            <mxPoint x="-92" y="-21" as="offset" />
          </mxGeometry>
        </mxCell>
        <mxCell id="PvxDkJQJ_6rjAkDlVwc9-73" value="Redirect" style="edgeLabel;html=1;align=center;verticalAlign=middle;resizable=0;points=[];" vertex="1" connectable="0" parent="PvxDkJQJ_6rjAkDlVwc9-71">
          <mxGeometry x="-0.2888" relative="1" as="geometry">
            <mxPoint as="offset" />
          </mxGeometry>
        </mxCell>
        <mxCell id="PvxDkJQJ_6rjAkDlVwc9-74" value="&lt;font style=&quot;font-size: 10px;&quot;&gt;Did the user press Back to home button ?&lt;/font&gt;" style="ellipse;shape=umlControl;whiteSpace=wrap;html=1;fillColor=#e51400;fontColor=#ffffff;strokeColor=#B20000;textShadow=1;" vertex="1" parent="1">
          <mxGeometry x="1640" y="400" width="70" height="80" as="geometry" />
        </mxCell>
        <mxCell id="PvxDkJQJ_6rjAkDlVwc9-75" value="HomeScreen" style="shape=umlBoundary;whiteSpace=wrap;html=1;" vertex="1" parent="1">
          <mxGeometry x="1940" y="400" width="100" height="80" as="geometry" />
        </mxCell>
        <mxCell id="PvxDkJQJ_6rjAkDlVwc9-76" style="edgeStyle=orthogonalEdgeStyle;rounded=0;orthogonalLoop=1;jettySize=auto;html=1;entryX=0.742;entryY=0.02;entryDx=0;entryDy=0;entryPerimeter=0;" edge="1" parent="1" source="PvxDkJQJ_6rjAkDlVwc9-74" target="PvxDkJQJ_6rjAkDlVwc9-2">
          <mxGeometry relative="1" as="geometry">
            <Array as="points">
              <mxPoint x="1510" y="440" />
              <mxPoint x="1510" y="550" />
              <mxPoint x="554" y="550" />
            </Array>
          </mxGeometry>
        </mxCell>
        <mxCell id="PvxDkJQJ_6rjAkDlVwc9-77" value="Stay in the screen till the user presses back to home" style="edgeLabel;html=1;align=center;verticalAlign=middle;resizable=0;points=[];" vertex="1" connectable="0" parent="PvxDkJQJ_6rjAkDlVwc9-76">
          <mxGeometry x="-0.0201" y="-1" relative="1" as="geometry">
            <mxPoint as="offset" />
          </mxGeometry>
        </mxCell>
        <mxCell id="PvxDkJQJ_6rjAkDlVwc9-78" value="No" style="text;html=1;align=center;verticalAlign=middle;resizable=0;points=[];autosize=1;strokeColor=none;fillColor=none;" vertex="1" parent="1">
          <mxGeometry x="1580" y="410" width="40" height="30" as="geometry" />
        </mxCell>
      </root>
    </mxGraphModel>
  </diagram>
</mxfile>
